# xmcd CD database file generated by OrangeCD 5.0
#
# Track frame offsets:
#	182
#	18725
#	43162
#	67975
#	90175
#	119862
#	137400
#	156625
#	181912
#	198875
#	220200
#	265825
#	279975
#	307837
#	334325
#
# Disc length: 4683 seconds
#
# Revision: 5
# Processed by: cddbd v1.4PL0 Copyright (c) Steve Scherf et al.
# Submitted via: OrangeCD 5.0
#
DISCID=d912490f
DTITLE=Neil Young - Silver and Gold (Bootleg)
DYEAR=1993
DGENRE=Rock
TTITLE0=Long May You Run
TTITLE1=From Hank To Hendrix
TTITLE2=Better Than Silver and Gold
TTITLE3=You And Me
TTITLE4=War Of Man
TTITLE5=Old King
TTITLE6=Such A Woman
TTITLE7=Harvest Moon
TTITLE8=Heart Of Gold
TTITLE9=Dreamin' Man
TTITLE10=Natural Beauty
TTITLE11=Don't Let It Bring You Down
TTITLE12=Down By The River
TTITLE13=After The Gold Rush
TTITLE14=Old Man
EXTD=Recorded live at The Paramount Theatre in Seattle, WA (01.20.92) YEAR: 199
EXTD=2
EXTT0=
EXTT1=
EXTT2=
EXTT3=
EXTT4=
EXTT5=
EXTT6=
EXTT7=
EXTT8=
EXTT9=
EXTT10=
EXTT11=
EXTT12=
EXTT13=
EXTT14=
PLAYORDER=
